<svg width="409" height="285" viewBox="0 0 409 285" fill="none" xmlns="http://www.w3.org/2000/svg">
<path d="M323.792 16.6167H85.2084C75.8354 16.6167 68.1667 24.2854 68.1667 33.6583V187.033C68.1667 196.406 75.8354 204.075 85.2084 204.075H323.792C333.165 204.075 340.833 196.406 340.833 187.033V33.6583C340.833 24.2854 333.165 16.6167 323.792 16.6167Z" fill="#FFD700"/>
<path d="M315.271 33.6583H93.7292C89.0427 33.6583 85.2084 37.4927 85.2084 42.1792V178.512C85.2084 183.199 89.0427 187.033 93.7292 187.033H315.271C319.957 187.033 323.792 183.199 323.792 178.512V42.1792C323.792 37.4927 319.957 33.6583 315.271 33.6583Z" fill="black"/>
<path fill-rule="evenodd" clip-rule="evenodd" d="M238.583 204.075H170.417L161.896 255.2H247.104L238.583 204.075Z" fill="#FFD700"/>
<path fill-rule="evenodd" clip-rule="evenodd" d="M255.625 238.158H153.375C144.002 238.158 136.333 245.827 136.333 255.2H272.667C272.667 245.827 264.998 238.158 255.625 238.158Z" fill="#FFD700"/>
<mask id="path-5-outside-1_1_802" maskUnits="userSpaceOnUse" x="95.7581" y="72.9986" width="218" height="74" fill="black">
<rect fill="white" x="95.7581" y="72.9986" width="218" height="74"/>
<path d="M108.474 144.999H99.6108L125.247 75.1804H133.974L159.611 144.999H150.747L129.884 86.2259H129.338L108.474 144.999ZM111.747 117.726H147.474V125.226H111.747V117.726ZM250.455 75.1804H260.136L279.5 107.771H280.318L299.682 75.1804H309.364L284.136 116.226V144.999H275.682V116.226L250.455 75.1804Z"/>
<path d="M190.523 75.1804V144.999H182.068V84.0441H181.659L164.614 95.3622V86.7713L182.068 75.1804H190.523ZM235.148 75.1804V144.999H226.693V84.0441H226.284L209.239 95.3622V86.7713L226.693 75.1804H235.148Z"/>
</mask>
<path d="M108.474 144.999H99.6108L125.247 75.1804H133.974L159.611 144.999H150.747L129.884 86.2259H129.338L108.474 144.999ZM111.747 117.726H147.474V125.226H111.747V117.726ZM250.455 75.1804H260.136L279.5 107.771H280.318L299.682 75.1804H309.364L284.136 116.226V144.999H275.682V116.226L250.455 75.1804Z" fill="#FFD700"/>
<path d="M190.523 75.1804V144.999H182.068V84.0441H181.659L164.614 95.3622V86.7713L182.068 75.1804H190.523ZM235.148 75.1804V144.999H226.693V84.0441H226.284L209.239 95.3622V86.7713L226.693 75.1804H235.148Z" fill="#480049"/>
<path d="M108.474 144.999V146.999H109.887L110.359 145.668L108.474 144.999ZM99.6108 144.999L97.7334 144.309L96.7459 146.999H99.6108V144.999ZM125.247 75.1804V73.1804H123.851L123.37 74.491L125.247 75.1804ZM133.974 75.1804L135.852 74.491L135.371 73.1804H133.974V75.1804ZM159.611 144.999V146.999H162.476L161.488 144.309L159.611 144.999ZM150.747 144.999L148.862 145.668L149.335 146.999H150.747V144.999ZM129.884 86.2259L131.768 85.5568L131.296 84.2259H129.884V86.2259ZM129.338 86.2259V84.2259H127.926L127.453 85.5568L129.338 86.2259ZM111.747 117.726V115.726H109.747V117.726H111.747ZM147.474 117.726H149.474V115.726H147.474V117.726ZM147.474 125.226V127.226H149.474V125.226H147.474ZM111.747 125.226H109.747V127.226H111.747V125.226ZM108.474 142.999H99.6108V146.999H108.474V142.999ZM101.488 145.688L127.125 75.8698L123.37 74.491L97.7334 144.309L101.488 145.688ZM125.247 77.1804H133.974V73.1804H125.247V77.1804ZM132.097 75.8698L157.733 145.688L161.488 144.309L135.852 74.491L132.097 75.8698ZM159.611 142.999H150.747V146.999H159.611V142.999ZM152.632 144.33L131.768 85.5568L127.999 86.8949L148.862 145.668L152.632 144.33ZM129.884 84.2259H129.338V88.2259H129.884V84.2259ZM127.453 85.5568L106.59 144.33L110.359 145.668L131.223 86.8949L127.453 85.5568ZM111.747 119.726H147.474V115.726H111.747V119.726ZM145.474 117.726V125.226H149.474V117.726H145.474ZM147.474 123.226H111.747V127.226H147.474V123.226ZM113.747 125.226V117.726H109.747V125.226H113.747ZM190.523 75.1804H192.523V73.1804H190.523V75.1804ZM190.523 144.999V146.999H192.523V144.999H190.523ZM182.068 144.999H180.068V146.999H182.068V144.999ZM182.068 84.0441H184.068V82.0441H182.068V84.0441ZM181.659 84.0441V82.0441H181.056L180.553 82.3779L181.659 84.0441ZM164.614 95.3622H162.614V99.091L165.72 97.0284L164.614 95.3622ZM164.614 86.7713L163.507 85.1052L162.614 85.6986V86.7713H164.614ZM182.068 75.1804V73.1804H181.465L180.962 73.5143L182.068 75.1804ZM188.523 75.1804V144.999H192.523V75.1804H188.523ZM190.523 142.999H182.068V146.999H190.523V142.999ZM184.068 144.999V84.0441H180.068V144.999H184.068ZM182.068 82.0441H181.659V86.0441H182.068V82.0441ZM180.553 82.3779L163.507 93.6961L165.72 97.0284L182.765 85.7102L180.553 82.3779ZM166.614 95.3622V86.7713H162.614V95.3622H166.614ZM165.72 88.4374L183.175 76.8465L180.962 73.5143L163.507 85.1052L165.72 88.4374ZM182.068 77.1804H190.523V73.1804H182.068V77.1804ZM235.148 75.1804H237.148V73.1804H235.148V75.1804ZM235.148 144.999V146.999H237.148V144.999H235.148ZM226.693 144.999H224.693V146.999H226.693V144.999ZM226.693 84.0441H228.693V82.0441H226.693V84.0441ZM226.284 84.0441V82.0441H225.681L225.178 82.3779L226.284 84.0441ZM209.239 95.3622H207.239V99.091L210.345 97.0284L209.239 95.3622ZM209.239 86.7713L208.132 85.1052L207.239 85.6986V86.7713H209.239ZM226.693 75.1804V73.1804H226.09L225.587 73.5143L226.693 75.1804ZM233.148 75.1804V144.999H237.148V75.1804H233.148ZM235.148 142.999H226.693V146.999H235.148V142.999ZM228.693 144.999V84.0441H224.693V144.999H228.693ZM226.693 82.0441H226.284V86.0441H226.693V82.0441ZM225.178 82.3779L208.132 93.6961L210.345 97.0284L227.39 85.7102L225.178 82.3779ZM211.239 95.3622V86.7713H207.239V95.3622H211.239ZM210.345 88.4374L227.8 76.8465L225.587 73.5143L208.132 85.1052L210.345 88.4374ZM226.693 77.1804H235.148V73.1804H226.693V77.1804ZM250.455 75.1804V73.1804H246.878L248.751 76.2277L250.455 75.1804ZM260.136 75.1804L261.856 74.1588L261.275 73.1804H260.136V75.1804ZM279.5 107.771L277.781 108.793L278.362 109.771H279.5V107.771ZM280.318 107.771V109.771H281.456L282.038 108.793L280.318 107.771ZM299.682 75.1804V73.1804H298.544L297.962 74.1588L299.682 75.1804ZM309.364 75.1804L311.068 76.2277L312.94 73.1804H309.364V75.1804ZM284.136 116.226L282.433 115.179L282.136 115.66V116.226H284.136ZM284.136 144.999V146.999H286.136V144.999H284.136ZM275.682 144.999H273.682V146.999H275.682V144.999ZM275.682 116.226H277.682V115.66L277.386 115.179L275.682 116.226ZM250.455 77.1804H260.136V73.1804H250.455V77.1804ZM258.417 76.202L277.781 108.793L281.219 106.75L261.856 74.1588L258.417 76.202ZM279.5 109.771H280.318V105.771H279.5V109.771ZM282.038 108.793L301.401 76.202L297.962 74.1588L278.599 106.75L282.038 108.793ZM299.682 77.1804H309.364V73.1804H299.682V77.1804ZM307.66 74.1332L282.433 115.179L285.84 117.273L311.068 76.2277L307.66 74.1332ZM282.136 116.226V144.999H286.136V116.226H282.136ZM284.136 142.999H275.682V146.999H284.136V142.999ZM277.682 144.999V116.226H273.682V144.999H277.682ZM277.386 115.179L252.159 74.1332L248.751 76.2277L273.978 117.273L277.386 115.179Z" fill="#FFD700" mask="url(#path-5-outside-1_1_802)"/>
</svg>
