<svg width="409" height="285" viewBox="0 0 409 285" fill="none" xmlns="http://www.w3.org/2000/svg">
<path d="M323.792 16.6167H85.2084C75.8354 16.6167 68.1667 24.2854 68.1667 33.6583V187.033C68.1667 196.406 75.8354 204.075 85.2084 204.075H323.792C333.165 204.075 340.833 196.406 340.833 187.033V33.6583C340.833 24.2854 333.165 16.6167 323.792 16.6167Z" fill="#FFD700"/>
<path d="M315.271 33.6583H93.7292C89.0427 33.6583 85.2084 37.4927 85.2084 42.1792V178.512C85.2084 183.199 89.0427 187.033 93.7292 187.033H315.271C319.957 187.033 323.792 183.199 323.792 178.512V42.1792C323.792 37.4927 319.957 33.6583 315.271 33.6583Z" fill="black"/>
<path fill-rule="evenodd" clip-rule="evenodd" d="M238.583 204.075H170.417L161.896 255.2H247.104L238.583 204.075Z" fill="#FFD700"/>
<path fill-rule="evenodd" clip-rule="evenodd" d="M255.625 238.158H153.375C144.002 238.158 136.333 245.827 136.333 255.2H272.667C272.667 245.827 264.998 238.158 255.625 238.158Z" fill="#FFD700"/>
<path d="M108.474 144.999H99.6108L125.247 75.1804H133.974L159.611 144.999H150.747L129.884 86.2259H129.338L108.474 144.999ZM111.747 117.726H147.474V125.226H111.747V117.726ZM190.523 75.1804V144.999H182.068V84.0441H181.659L164.614 95.3622V86.7713L182.068 75.1804H190.523ZM235.148 75.1804V144.999H226.693V84.0441H226.284L209.239 95.3622V86.7713L226.693 75.1804H235.148ZM250.455 75.1804H260.136L279.5 107.771H280.318L299.682 75.1804H309.364L284.136 116.226V144.999H275.682V116.226L250.455 75.1804Z" fill="#FFD700"/>
</svg>
