<svg width="12" height="12" viewBox="0 0 12 12" fill="none" xmlns="http://www.w3.org/2000/svg">
<path fill-rule="evenodd" clip-rule="evenodd" d="M0 8C0 8.55228 0.447715 9 1 9H4C4.55228 9 5 9.44772 5 10V10C5 10.5523 4.55228 11 4 11H3.5C3.22386 11 3 11.2239 3 11.5V11.5C3 11.7761 3.22386 12 3.5 12L8.5 12C8.77614 12 9 11.7761 9 11.5V11.5C9 11.2239 8.77614 11 8.5 11L8 11C7.44772 11 7 10.5523 7 10V10C7 9.44772 7.44772 9 8 9H11C11.5523 9 12 8.55228 12 8V1C12 0.447715 11.5523 0 11 0H1C0.447715 0 0 0.447715 0 1V8ZM11 2C11 1.44772 10.5523 1 10 1H2C1.44772 1 1 1.44772 1 2V7C1 7.55228 1.44772 8 2 8H10C10.5523 8 11 7.55228 11 7V2Z" fill="black"/>
<path fill-rule="evenodd" clip-rule="evenodd" d="M9 4.5C9 6.15686 7.65686 7.5 6 7.5C4.34314 7.5 3 6.15686 3 4.5C3 2.84314 4.34314 1.5 6 1.5C7.65686 1.5 9 2.84314 9 4.5ZM5.39655 6.9267C5.04666 6.4665 4.79704 5.98832 4.65256 5.5H3.70802C4.01551 6.20375 4.6376 6.7386 5.39655 6.9267ZM3.55001 5H4.54204C4.51767 4.83413 4.50534 4.66744 4.50521 4.5002C4.50509 4.33282 4.51719 4.16599 4.54135 4H3.55001C3.51722 4.16156 3.5 4.32877 3.5 4.5C3.5 4.67123 3.51722 4.83844 3.55001 5ZM3.70802 3.5H4.65129C4.79525 3.01182 5.04464 2.53376 5.39512 2.07367C4.63683 2.26209 4.0153 2.79669 3.70802 3.5ZM5.17618 3.5H6.80718C6.64282 3.04472 6.36895 2.59044 5.97958 2.14562C5.59866 2.59075 5.33285 3.04503 5.17618 3.5ZM7.46459 4.99999H8.45C8.4828 4.83843 8.5 4.67121 8.5 4.49998C8.5 4.32875 8.4828 4.16154 8.45 3.99998H7.45148C7.48044 4.18154 7.49495 4.36413 7.49481 4.54737C7.49469 4.69876 7.48457 4.8497 7.46459 4.99999ZM6.64733 6.91535C7.38635 6.7178 7.99046 6.19012 8.292 5.49998H7.36109C7.22478 5.984 6.9853 6.45834 6.64733 6.91535ZM6.83833 5.49998H5.17761C5.34018 5.97079 5.61911 6.44088 6.02037 6.90085C6.41298 6.44054 6.68365 5.97047 6.83833 5.49998ZM7.33447 3.49998H8.292C7.97869 2.7829 7.33873 2.24121 6.56021 2.06299C6.92268 2.52602 7.18225 3.00772 7.33447 3.49998ZM5.04759 4C5.0191 4.16706 5.00507 4.33381 5.00519 4.4998C5.00531 4.66592 5.01963 4.8328 5.0484 5H6.9593C6.9829 4.8486 6.99465 4.69749 6.99477 4.547C6.99492 4.36538 6.9781 4.18286 6.94393 4H5.04759Z" fill="black"/>
</svg>
