<svg width="66" height="66" viewBox="0 0 66 66" fill="none" xmlns="http://www.w3.org/2000/svg">
<circle cx="32.77" cy="32.77" r="27.3083" fill="#0077B5"/>
<path fill-rule="evenodd" clip-rule="evenodd" d="M25.6352 19.5035C25.6352 21.2035 24.3408 22.5794 22.3165 22.5794C20.371 22.5794 19.0766 21.2035 19.1166 19.5035C19.0766 17.7208 20.371 16.385 22.3552 16.385C24.3408 16.385 25.5964 17.7208 25.6352 19.5035ZM19.2794 44.8117V25.0093H25.4337V44.8104H19.2794V44.8117Z" fill="white"/>
<path fill-rule="evenodd" clip-rule="evenodd" d="M30.3664 31.329C30.3664 28.859 30.285 26.7533 30.2036 25.0119H35.5492L35.8334 27.7248H35.9548C36.7648 26.4691 38.7891 24.5675 42.0691 24.5675C46.1177 24.5675 49.1548 27.2403 49.1548 33.0691V44.8143H43.0005V33.8403C43.0005 31.2877 42.1104 29.5475 39.8833 29.5475C38.1819 29.5475 37.1704 30.7218 36.766 31.8548C36.6033 32.2604 36.5232 32.8262 36.5232 33.3946V44.8143H30.3688V31.329H30.3664Z" fill="white"/>
</svg>
