<svg width="189" height="193" viewBox="0 0 189 193" fill="none" xmlns="http://www.w3.org/2000/svg">
<path d="M95.0698 97.0476L116.154 91.561L136.703 97.0961M95.0698 97.0476L74.4435 102.165L53.5373 96.8963M95.0698 97.0476L89.5051 75.8492L95.0222 54.6637M95.0698 97.0476L100.205 118.297L95.0166 139.534" stroke="black" stroke-width="2"/>
<path d="M95.0691 97.0475L61.1545 131.573M95.0691 97.0475L128.984 62.5216M95.0691 97.0475L61.0767 62.4424M95.0691 97.0475L129.061 131.653" stroke="black" stroke-width="2"/>
<path d="M112.392 97.2517C112.234 106.717 104.431 114.382 94.9633 114.371C85.4959 114.36 77.9496 106.677 78.1081 97.2118C78.2666 87.7463 86.0698 80.0818 95.5372 80.0928C105.005 80.1038 112.551 87.7862 112.392 97.2517Z" fill="black" stroke="black" stroke-width="3"/>
<path d="M99.1131 135.364C101.328 137.619 101.329 141.267 99.1247 143.511C96.9202 145.755 93.3371 145.755 91.1217 143.499C88.9063 141.244 88.9057 137.596 91.1102 135.352C93.3147 133.108 96.8977 133.109 99.1131 135.364Z" fill="#FFD700" stroke="black" stroke-width="3"/>
<path d="M140.699 93.0286C142.914 95.2839 142.915 98.9315 140.71 101.176C138.506 103.42 134.923 103.419 132.707 101.164C130.492 98.9086 130.491 95.261 132.696 93.0168C134.9 90.7726 138.483 90.7732 140.699 93.0286Z" fill="#FFD700" stroke="black" stroke-width="3"/>
<path d="M99.0176 50.5961C101.233 52.8514 101.234 56.499 99.0292 58.7432C96.8247 60.9875 93.2417 60.9868 91.0263 58.7315C88.8109 56.4761 88.8102 52.8285 91.0147 50.5843C93.2192 48.3401 96.8022 48.3407 99.0176 50.5961Z" fill="#FFD700" stroke="black" stroke-width="3"/>
<path d="M57.4305 92.9314C59.6459 95.1867 59.6465 98.8343 57.442 101.079C55.2376 103.323 51.6545 103.322 49.4391 101.067C47.2237 98.8114 47.2231 95.1638 49.4276 92.9196C51.632 90.6754 55.2151 90.676 57.4305 92.9314Z" fill="#FFD700" stroke="black" stroke-width="3"/>
<path d="M95.2828 81.7717L108.607 89.519L108.625 104.983L95.3176 112.699L81.9931 104.951L81.9757 89.488L95.2828 81.7717Z" fill="#FFD700"/>
<path d="M95.3002 97.2352L95.3176 112.699M95.3002 97.2352L108.607 89.519M95.3002 97.2352L81.9757 89.488M108.607 89.519L95.2828 81.7717L81.9757 89.488M108.607 89.519L108.625 104.983L95.3176 112.699M95.3176 112.699L81.9931 104.951L81.9757 89.488" stroke="black" stroke-width="2"/>
<path d="M118.592 120.468L134.371 116.299L145.98 127.909L141.81 143.687L126.031 147.856L114.422 136.247L118.592 120.468Z" fill="#FFD700"/>
<path d="M130.201 132.078L141.81 143.687M130.201 132.078L134.371 116.299M130.201 132.078L114.422 136.247M134.371 116.299L118.592 120.468L114.422 136.247M134.371 116.299L145.98 127.909L141.81 143.687M141.81 143.687L126.031 147.856L114.422 136.247" stroke="black" stroke-width="2"/>
<path d="M47.1784 48.7238L62.9573 44.5548L74.5665 56.1644L70.3967 71.9431L54.6178 76.1122L43.0087 64.5026L47.1784 48.7238Z" fill="#FFD700"/>
<path d="M58.7876 60.3335L70.3967 71.9431M58.7876 60.3335L62.9573 44.5548M58.7876 60.3335L43.0087 64.5026M62.9573 44.5548L47.1784 48.7238L43.0087 64.5026M62.9573 44.5548L74.5665 56.1644L70.3967 71.9431M70.3967 71.9431L54.6178 76.1122L43.0087 64.5026" stroke="black" stroke-width="2"/>
<path d="M70.4511 121.365L74.6564 137.153L63.0733 148.736L47.285 144.53L43.0797 128.741L54.6628 117.159L70.4511 121.365Z" fill="#FFD700"/>
<path d="M58.868 132.947L47.285 144.53M58.868 132.947L74.6564 137.153M58.868 132.947L54.6628 117.159M74.6564 137.153L70.4511 121.365L54.6628 117.159M74.6564 137.153L63.0733 148.736L47.285 144.53M47.285 144.53L43.0797 128.741L54.6628 117.159" stroke="black" stroke-width="2"/>
<path d="M142.655 48.8339L146.86 64.6223L135.277 76.2049L119.489 71.9991L115.284 56.2106L126.867 44.628L142.655 48.8339Z" fill="#FFD700"/>
<path d="M131.072 60.4165L119.489 71.9991M131.072 60.4165L146.86 64.6223M131.072 60.4165L126.867 44.628M146.86 64.6223L142.655 48.8339L126.867 44.628M146.86 64.6223L135.277 76.2049L119.489 71.9991M119.489 71.9991L115.284 56.2106L126.867 44.628" stroke="black" stroke-width="2"/>
</svg>
