<svg width="172" height="168" viewBox="0 0 172 168" fill="none" xmlns="http://www.w3.org/2000/svg">
<g clip-path="url(#clip0_232_32)">
<rect width="172" height="168" rx="20" fill="white"/>
<path d="M86.2753 85.9231L114.502 78.578L142.012 85.9881M86.2753 85.9231L58.6616 92.7742L30.6733 85.7206M86.2753 85.9231L78.8255 57.5436L86.2114 29.1814M86.2753 85.9231L93.1506 114.371L86.2039 142.802" stroke="black" stroke-width="2"/>
<path d="M86.2742 85.9231L40.8708 132.145M86.2742 85.9231L131.678 39.7012M86.2742 85.9231L40.7667 39.5953M86.2742 85.9231L131.782 132.251" stroke="black" stroke-width="2"/>
<path d="M109.974 86.197C109.757 99.1497 99.0793 109.638 86.1241 109.623C73.169 109.608 62.8427 99.095 63.0595 86.1423C63.2764 73.1897 73.9543 62.7016 86.9094 62.7167C99.8646 62.7318 110.191 73.2444 109.974 86.197Z" fill="black" stroke="black" stroke-width="3"/>
<path d="M92.0443 136.857C95.2061 140.076 95.2085 145.283 92.0598 148.489C88.9111 151.694 83.7954 151.692 80.6336 148.473C77.4719 145.254 77.4695 140.046 80.6182 136.841C83.7668 133.636 88.8825 133.638 92.0443 136.857Z" fill="#FFD700" stroke="black" stroke-width="3"/>
<path d="M147.717 80.1801C150.879 83.3989 150.881 88.6068 147.733 91.8122C144.584 95.0177 139.468 95.0152 136.306 91.7965C133.145 88.5777 133.142 83.3698 136.291 80.1644C139.44 76.9589 144.555 76.9614 147.717 80.1801Z" fill="#FFD700" stroke="black" stroke-width="3"/>
<path d="M91.9166 23.3734C95.0784 26.5922 95.0808 31.8 91.9321 35.0055C88.7834 38.2109 83.6677 38.2085 80.506 34.9897C77.3442 31.7709 77.3418 26.5631 80.4905 23.3576C83.6392 20.1522 88.7548 20.1546 91.9166 23.3734Z" fill="#FFD700" stroke="black" stroke-width="3"/>
<path d="M36.2415 80.0501C39.4033 83.2689 39.4057 88.4768 36.257 91.6822C33.1083 94.8877 27.9927 94.8852 24.8309 91.6665C21.6691 88.4477 21.6667 83.2398 24.8154 80.0344C27.9641 76.8289 33.0798 76.8314 36.2415 80.0501Z" fill="#FFD700" stroke="black" stroke-width="3"/>
<path d="M86.5605 65.4724L104.399 75.8441L104.422 96.546L86.607 106.876L68.7688 96.5044L68.7455 75.8026L86.5605 65.4724Z" fill="#FFD700"/>
<path d="M86.5838 86.1743L86.607 106.876M86.5838 86.1743L104.399 75.8441M86.5838 86.1743L68.7455 75.8026M104.399 75.8441L86.5605 65.4724L68.7455 75.8026M104.399 75.8441L104.422 96.546L86.607 106.876M86.607 106.876L68.7688 96.5044L68.7455 75.8026" stroke="black" stroke-width="2"/>
<path d="M117.766 117.277L138.89 111.696L154.431 127.238L148.849 148.362L127.725 153.944L112.183 138.401L117.766 117.277Z" fill="#FFD700"/>
<path d="M133.307 132.82L148.849 148.362M133.307 132.82L138.89 111.696M133.307 132.82L112.183 138.401M138.89 111.696L117.766 117.277L112.183 138.401M138.89 111.696L154.431 127.238L148.849 148.362M148.849 148.362L127.725 153.944L112.183 138.401" stroke="black" stroke-width="2"/>
<path d="M22.1606 21.2295L43.2847 15.6481L58.8265 31.1906L53.2442 52.3145L32.1201 57.8959L16.5783 42.3534L22.1606 21.2295Z" fill="#FFD700"/>
<path d="M37.7024 36.772L53.2442 52.3145M37.7024 36.772L43.2847 15.6481M37.7024 36.772L16.5783 42.3534M43.2847 15.6481L22.1606 21.2295L16.5783 42.3534M43.2847 15.6481L58.8265 31.1906L53.2442 52.3145M53.2442 52.3145L32.1201 57.8959L16.5783 42.3534" stroke="black" stroke-width="2"/>
<path d="M53.3168 118.478L58.9466 139.615L43.4397 155.121L22.303 149.49L16.6732 128.353L32.1801 112.847L53.3168 118.478Z" fill="#FFD700"/>
<path d="M37.8099 133.984L22.303 149.49M37.8099 133.984L58.9466 139.615M37.8099 133.984L32.1801 112.847M58.9466 139.615L53.3168 118.478L32.1801 112.847M58.9466 139.615L43.4397 155.121L22.303 149.49M22.303 149.49L16.6732 128.353L32.1801 112.847" stroke="black" stroke-width="2"/>
<path d="M149.98 21.3767L155.61 42.5137L140.103 58.0199L118.967 52.3893L113.337 31.2523L128.844 15.7461L149.98 21.3767Z" fill="#FFD700"/>
<path d="M134.473 36.883L118.967 52.3893M134.473 36.883L155.61 42.5137M134.473 36.883L128.844 15.7461M155.61 42.5137L149.98 21.3767L128.844 15.7461M155.61 42.5137L140.103 58.0199L118.967 52.3893M118.967 52.3893L113.337 31.2523L128.844 15.7461" stroke="black" stroke-width="2"/>
</g>
<defs>
<clipPath id="clip0_232_32">
<rect width="172" height="168" rx="20" fill="white"/>
</clipPath>
</defs>
</svg>
