<svg width="12" height="12" viewBox="0 0 12 12" fill="none" xmlns="http://www.w3.org/2000/svg">
<path fill-rule="evenodd" clip-rule="evenodd" d="M0 8C0 8.55228 0.447715 9 1 9H4C4.55228 9 5 9.44772 5 10V10C5 10.5523 4.55228 11 4 11H3.5C3.22386 11 3 11.2239 3 11.5V11.5C3 11.7761 3.22386 12 3.5 12L8.5 12C8.77614 12 9 11.7761 9 11.5V11.5C9 11.2239 8.77614 11 8.5 11L8 11C7.44772 11 7 10.5523 7 10V10C7 9.44772 7.44772 9 8 9H11C11.5523 9 12 8.55228 12 8V1C12 0.447715 11.5523 0 11 0H1C0.447715 0 0 0.447715 0 1V8ZM11 2C11 1.44772 10.5523 1 10 1H2C1.44772 1 1 1.44772 1 2V7C1 7.55228 1.44772 8 2 8H10C10.5523 8 11 7.55228 11 7V2Z" fill="black"/>
<path fill-rule="evenodd" clip-rule="evenodd" d="M4.74219 1.75H4.24219V2H3.5V3.75C3.5 4.63162 4.15193 5.36097 5 5.48228V6.00781C5 6.83624 5.67157 7.50781 6.5 7.50781C7.32843 7.50781 8 6.83624 8 6.00781V5.20732C8.2913 5.10436 8.5 4.82655 8.5 4.5C8.5 4.08579 8.16421 3.75 7.75 3.75C7.33579 3.75 7 4.08579 7 4.5C7 4.82655 7.2087 5.10436 7.5 5.20732V6.00781C7.5 6.5601 7.05228 7.00781 6.5 7.00781C5.94772 7.00781 5.5 6.5601 5.5 6.00781V5.48228C6.34807 5.36097 7 4.63162 7 3.75V2H6.25V1.75H5.75V2.75H6.25V2.5H6.5V3.75C6.5 4.44036 5.94036 5 5.25 5C4.55964 5 4 4.44036 4 3.75V2.5H4.24219V2.75H4.74219V1.75ZM7.75 4.25C7.61193 4.25 7.5 4.36193 7.5 4.5C7.5 4.63807 7.61193 4.75 7.75 4.75C7.88807 4.75 8 4.63807 8 4.5C8 4.36193 7.88807 4.25 7.75 4.25Z" fill="black"/>
</svg>
