<svg width="160" height="160" viewBox="0 0 160 160" fill="none" xmlns="http://www.w3.org/2000/svg">
<mask id="mask0_303_320" style="mask-type:alpha" maskUnits="userSpaceOnUse" x="26" y="13" width="108" height="134">
<path fill-rule="evenodd" clip-rule="evenodd" d="M99.2713 19.1039C95.6193 15.4515 90.6953 13.3495 85.53 13.3374C83.7827 13.3333 81.942 13.3333 80 13.3333C61.3316 13.3333 51.9974 13.3333 44.867 16.9665C38.5949 20.1622 33.4955 25.2616 30.2998 31.5337C26.6667 38.6641 26.6667 47.9983 26.6667 66.6667V93.3333C26.6667 112.002 26.6667 121.336 30.2998 128.467C33.4955 134.739 38.5949 139.838 44.867 143.033C51.9974 146.667 61.3316 146.667 80 146.667C98.6687 146.667 108.003 146.667 115.133 143.033C121.405 139.838 126.505 134.739 129.7 128.467C133.333 121.336 133.333 112.002 133.333 93.3333V66.6667C133.333 64.725 133.333 62.8843 133.329 61.1365C133.317 55.9713 131.215 51.0475 127.563 47.3951L99.2713 19.1039Z" fill="white"/>
</mask>
<g mask="url(#mask0_303_320)">
<path d="M44.867 16.9665L49.4069 25.8765L44.867 16.9665ZM30.2998 31.5337L39.2099 36.0735L30.2998 31.5337ZM30.2998 128.467L21.3897 133.006L30.2998 128.467ZM44.867 143.033L49.4069 134.123L44.867 143.033ZM115.133 143.033L110.593 134.123L115.133 143.033ZM129.7 128.467L120.79 123.927L129.7 128.467ZM127.563 47.3951L120.492 54.4662L127.563 47.3951ZM80 23.3333C81.944 23.3333 83.7727 23.3333 85.5067 23.3374L85.5533 3.33745C83.792 3.33333 81.9393 3.33333 80 3.33333V23.3333ZM49.4069 25.8765C51.3274 24.8979 53.9811 24.1579 58.9211 23.7543C63.9778 23.3411 70.5007 23.3333 80 23.3333V3.33333C70.8307 3.33333 63.3525 3.32555 57.2924 3.82069C51.1156 4.32535 45.5369 5.40182 40.3271 8.0564L49.4069 25.8765ZM39.2099 36.0735C41.4469 31.6831 45.0165 28.1135 49.4069 25.8765L40.3271 8.0564C32.1734 12.2109 25.5442 18.8401 21.3897 26.9937L39.2099 36.0735ZM36.6667 66.6667C36.6667 57.1675 36.6745 50.6445 37.0876 45.5877C37.4912 40.6477 38.2313 37.9941 39.2099 36.0735L21.3897 26.9937C18.7351 32.2036 17.6587 37.7823 17.154 43.9591C16.6589 50.0191 16.6667 57.4975 16.6667 66.6667H36.6667ZM36.6667 93.3333V66.6667H16.6667V93.3333H36.6667ZM39.2099 123.927C38.2313 122.006 37.4912 119.352 37.0876 114.412C36.6745 109.355 36.6667 102.833 36.6667 93.3333H16.6667C16.6667 102.503 16.6589 109.981 17.154 116.041C17.6587 122.218 18.7351 127.797 21.3897 133.006L39.2099 123.927ZM49.4069 134.123C45.0165 131.887 41.4469 128.317 39.2099 123.927L21.3897 133.006C25.5442 141.16 32.1734 147.789 40.3271 151.943L49.4069 134.123ZM80 136.667C70.5007 136.667 63.9778 136.659 58.9211 136.246C53.9811 135.842 51.3274 135.102 49.4069 134.123L40.3271 151.943C45.5369 154.598 51.1156 155.675 57.2924 156.179C63.3525 156.675 70.8307 156.667 80 156.667V136.667ZM110.593 134.123C108.673 135.102 106.019 135.842 101.079 136.246C96.022 136.659 89.4993 136.667 80 136.667V156.667C89.1693 156.667 96.6473 156.675 102.707 156.179C108.885 155.675 114.463 154.598 119.673 151.943L110.593 134.123ZM120.79 123.927C118.553 128.317 114.983 131.887 110.593 134.123L119.673 151.943C127.827 147.789 134.456 141.16 138.61 133.006L120.79 123.927ZM123.333 93.3333C123.333 102.833 123.325 109.355 122.913 114.412C122.509 119.352 121.769 122.006 120.79 123.927L138.61 133.006C141.265 127.797 142.341 122.218 142.846 116.041C143.341 109.981 143.333 102.503 143.333 93.3333H123.333ZM123.333 66.6667V93.3333H143.333V66.6667H123.333ZM123.329 61.1599C123.333 62.8938 123.333 64.7224 123.333 66.6667H143.333C143.333 64.7275 143.333 62.8747 143.329 61.1131L123.329 61.1599ZM134.634 40.324L106.343 12.0328L92.2007 26.175L120.492 54.4662L134.634 40.324ZM143.329 61.1131C143.311 53.2309 140.103 45.7939 134.634 40.324L120.492 54.4662C122.327 56.3011 123.323 58.7117 123.329 61.1599L143.329 61.1131ZM85.5067 23.3374C87.9553 23.3431 90.3653 24.3401 92.2007 26.175L106.343 12.0328C100.873 6.56303 93.436 3.35589 85.5533 3.33745L85.5067 23.3374Z" fill="#1B1B1B"/>
<path d="M90 16.6667V36.6667C90 47.7123 98.954 56.6667 110 56.6667H126.667" stroke="#1B1B1B" stroke-width="4"/>
</g>
<path d="M108.8 76.8H51.2" stroke="#1B1B1B" stroke-width="4" stroke-linecap="round"/>
<path d="M108.8 96H51.2" stroke="#1B1B1B" stroke-width="4" stroke-linecap="round"/>
<path d="M80 115.2H51.2" stroke="#1B1B1B" stroke-width="4" stroke-linecap="round"/>
<path d="M61.6333 39.2C61.6333 42.3112 59.1112 44.8333 56 44.8333C52.8888 44.8333 50.3667 42.3112 50.3667 39.2C50.3667 36.0888 52.8888 33.5667 56 33.5667C59.1112 33.5667 61.6333 36.0888 61.6333 39.2Z" stroke="#1B1B1B" stroke-width="4"/>
<path d="M66.8333 58.2667C66.8333 60.131 65.7776 61.9417 63.8239 63.337C61.8729 64.7308 59.1108 65.6333 56 65.6333C52.8892 65.6333 50.1271 64.7308 48.176 63.337C46.2225 61.9417 45.1667 60.131 45.1667 58.2667C45.1667 56.4023 46.2225 54.5917 48.176 53.1963C50.1271 51.8025 52.8892 50.9 56 50.9C59.1108 50.9 61.8729 51.8025 63.8239 53.1963C65.7776 54.5917 66.8333 56.4023 66.8333 58.2667Z" stroke="#1B1B1B" stroke-width="4"/>
</svg>
