<svg width="75" height="75" viewBox="0 0 75 75" fill="none" xmlns="http://www.w3.org/2000/svg">
<g filter="url(#filter0_ii_26_172)">
<path d="M12.127 32.7159H62.5584V35.7957C62.5584 49.722 51.269 61.0115 37.3427 61.0115C23.4164 61.0115 12.127 49.722 12.127 35.7957V32.7159Z" fill="#09BDF5"/>
</g>
<path d="M40.1088 19.1378C38.3746 18.2376 36.3108 18.2376 34.5765 19.1378L13.8591 29.8919C12.7949 30.4443 12.127 31.5436 12.127 32.7427C12.127 34.0136 12.8764 35.1651 14.0386 35.6796L35.0898 45C36.5246 45.6353 38.1608 45.6353 39.5956 45L60.6468 35.6796C61.809 35.1651 62.5584 34.0136 62.5584 32.7427C62.5584 31.5436 61.8905 30.4443 60.8263 29.8919L40.1088 19.1378Z" fill="url(#paint0_linear_26_172)"/>
<path opacity="0.8" d="M22.9062 13.4673C21.2053 13.4673 19.8264 14.8462 19.8264 16.5471V38.2422L35.0898 45C36.5246 45.6353 38.1608 45.6353 39.5956 45L54.859 38.2422V16.5471C54.859 14.8462 53.4801 13.4673 51.7792 13.4673H22.9062Z" fill="#68EFF8"/>
<rect x="24.446" y="18.6644" width="12.3191" height="3.46476" rx="1.73238" fill="black"/>
<path opacity="0.9" d="M24.446 26.9414C24.446 25.9846 25.2217 25.209 26.1784 25.209H48.5069C49.4636 25.209 50.2392 25.9846 50.2392 26.9414C50.2392 27.8981 49.4636 28.6737 48.5069 28.6737H26.1784C25.2217 28.6737 24.446 27.8981 24.446 26.9414Z" fill="black"/>
<path opacity="0.8" d="M24.446 33.4859C24.446 32.5291 25.2217 31.7535 26.1784 31.7535H43.3097C44.2665 31.7535 45.0421 32.5291 45.0421 33.4859C45.0421 34.4426 44.2665 35.2182 43.3097 35.2182H26.1784C25.2217 35.2182 24.446 34.4426 24.446 33.4859Z" fill="black"/>
<path opacity="0.6" d="M27.778 41.7629H38.69C39.1153 41.7629 39.46 41.4181 39.46 40.9929V39.068C39.46 38.6428 39.1153 38.2981 38.69 38.2981H25.216C24.7908 38.2981 24.446 38.6428 24.446 39.068V40.2876L27.778 41.7629Z" fill="black"/>
<defs>
<filter id="filter0_ii_26_172" x="12.127" y="10.1386" width="50.4314" height="55.3883" filterUnits="userSpaceOnUse" color-interpolation-filters="sRGB">
<feFlood flood-opacity="0" result="BackgroundImageFix"/>
<feBlend mode="normal" in="SourceGraphic" in2="BackgroundImageFix" result="shape"/>
<feColorMatrix in="SourceAlpha" type="matrix" values="0 0 0 0 0 0 0 0 0 0 0 0 0 0 0 0 0 0 127 0" result="hardAlpha"/>
<feOffset dy="-22.5773"/>
<feGaussianBlur stdDeviation="16.933"/>
<feComposite in2="hardAlpha" operator="arithmetic" k2="-1" k3="1"/>
<feColorMatrix type="matrix" values="0 0 0 0 0 0 0 0 0 0.473098 0 0 0 0 0.909804 0 0 0 0.57 0"/>
<feBlend mode="normal" in2="shape" result="effect1_innerShadow_26_172"/>
<feColorMatrix in="SourceAlpha" type="matrix" values="0 0 0 0 0 0 0 0 0 0 0 0 0 0 0 0 0 0 127 0" result="hardAlpha"/>
<feOffset dy="4.51546"/>
<feGaussianBlur stdDeviation="10.7242"/>
<feComposite in2="hardAlpha" operator="arithmetic" k2="-1" k3="1"/>
<feColorMatrix type="matrix" values="0 0 0 0 1 0 0 0 0 1 0 0 0 0 1 0 0 0 0.38 0"/>
<feBlend mode="normal" in2="effect1_innerShadow_26_172" result="effect2_innerShadow_26_172"/>
</filter>
<linearGradient id="paint0_linear_26_172" x1="37.3427" y1="17.702" x2="37.3427" y2="45.9975" gradientUnits="userSpaceOnUse">
<stop stop-color="#00B2FF"/>
<stop offset="1" stop-color="#005ECC"/>
</linearGradient>
</defs>
</svg>
