<svg width="512" height="512" viewBox="0 0 512 512" fill="none" xmlns="http://www.w3.org/2000/svg">
<g clip-path="url(#clip0_26_75)">
<rect width="512" height="512" fill="black"/>
<path d="M257.503 258.855L325.815 241.079L392.392 259.013M257.503 258.855L190.675 275.436L122.941 258.365M257.503 258.855L239.473 190.174L257.348 121.535M257.503 258.855L274.142 327.702L257.33 396.509" stroke="#FFD700" stroke-width="5"/>
<path d="M257.5 258.855L147.619 370.716M257.5 258.855L367.38 146.994M257.5 258.855L147.367 146.737M257.5 258.855L367.632 370.973" stroke="#FFD700" stroke-width="5"/>
<ellipse cx="60.3989" cy="60.3964" rx="60.3989" ry="60.3964" transform="matrix(0.999999 0.00116552 -0.0167397 0.999861 198.699 198.994)" fill="#FFD700"/>
<path d="M272.256 381.313C280.344 389.546 280.353 402.872 272.294 411.076C264.234 419.281 251.145 419.271 243.057 411.038C234.97 402.805 234.961 389.479 243.02 381.275C251.079 373.07 264.169 373.08 272.256 381.313Z" fill="black" stroke="#FFD700" stroke-width="5"/>
<path d="M406.99 244.15C415.077 252.383 415.087 265.709 407.027 273.913C398.968 282.118 385.879 282.109 377.791 273.875C369.704 265.642 369.694 252.317 377.754 244.112C385.813 235.908 398.902 235.917 406.99 244.15Z" fill="black" stroke="#FFD700" stroke-width="5"/>
<path d="M271.947 106.673C280.035 114.906 280.044 128.231 271.985 136.436C263.925 144.64 250.836 144.631 242.748 136.398C234.661 128.164 234.652 114.839 242.711 106.634C250.77 98.4299 263.86 98.4393 271.947 106.673Z" fill="black" stroke="#FFD700" stroke-width="5"/>
<path d="M137.208 243.836C145.296 252.069 145.305 265.395 137.246 273.599C129.186 281.804 116.097 281.794 108.009 273.561C99.9219 265.328 99.9127 252.002 107.972 243.798C116.031 235.593 129.121 235.603 137.208 243.836Z" fill="black" stroke="#FFD700" stroke-width="5"/>
<path d="M258.193 209.363L301.363 234.463L301.419 284.564L258.305 309.564L215.135 284.463L215.079 234.363L258.193 209.363Z" fill="black"/>
<path d="M258.249 259.463L258.305 309.564M258.249 259.463L301.363 234.463M258.249 259.463L215.079 234.363M301.363 234.463L258.193 209.363L215.079 234.363M301.363 234.463L301.419 284.564L258.305 309.564M258.305 309.564L215.135 284.463L215.079 234.363" stroke="#FFD700" stroke-width="5"/>
<path d="M333.711 334.736L384.834 321.228L422.446 358.842L408.937 409.964L357.814 423.472L320.202 385.857L333.711 334.736Z" fill="black"/>
<path d="M371.324 372.35L408.937 409.964M371.324 372.35L384.834 321.228M371.324 372.35L320.202 385.857M384.834 321.228L333.711 334.736L320.202 385.857M384.834 321.228L422.446 358.842L408.937 409.964M408.937 409.964L357.814 423.472L320.202 385.857" stroke="#FFD700" stroke-width="5"/>
<path d="M102.338 102.29L153.46 88.7825L191.073 126.397L177.563 177.519L126.441 191.026L88.8284 153.412L102.338 102.29Z" fill="black"/>
<path d="M139.951 139.904L177.563 177.519M139.951 139.904L153.46 88.7825M139.951 139.904L88.8284 153.412M153.46 88.7825L102.338 102.29L88.8284 153.412M153.46 88.7825L191.073 126.397L177.563 177.519M177.563 177.519L126.441 191.026L88.8284 153.412" stroke="#FFD700" stroke-width="5"/>
<path d="M177.74 339.554L191.365 390.708L153.836 428.234L102.684 414.607L89.0589 363.454L126.587 325.927L177.74 339.554Z" fill="black"/>
<path d="M140.212 377.081L102.684 414.607M140.212 377.081L191.365 390.708M140.212 377.081L126.587 325.927M191.365 390.708L177.74 339.554L126.587 325.927M191.365 390.708L153.836 428.234L102.684 414.607M102.684 414.607L89.0589 363.454L126.587 325.927" stroke="#FFD700" stroke-width="5"/>
<path d="M411.445 102.39L425.07 153.543L387.542 191.07L336.389 177.443L322.764 126.29L360.292 88.7633L411.445 102.39Z" fill="black"/>
<path d="M373.917 139.917L336.389 177.443M373.917 139.917L425.07 153.543M373.917 139.917L360.292 88.7633M425.07 153.543L411.445 102.39L360.292 88.7633M425.07 153.543L387.542 191.07L336.389 177.443M336.389 177.443L322.764 126.29L360.292 88.7633" stroke="#FFD700" stroke-width="5"/>
</g>
<defs>
<clipPath id="clip0_26_75">
<rect width="512" height="512" fill="white"/>
</clipPath>
</defs>
</svg>
