<svg width="75" height="75" viewBox="0 0 75 75" fill="none" xmlns="http://www.w3.org/2000/svg">
<circle cx="37.3423" cy="37.6509" r="31.1187" fill="#FF0000"/>
<path fill-rule="evenodd" clip-rule="evenodd" d="M54.9252 25.7916C55.5461 26.4126 55.9936 27.1854 56.223 28.0331C57.5438 33.3498 57.2386 41.7467 56.2486 47.2686C56.0192 48.1163 55.5718 48.8891 54.9508 49.5101C54.3298 50.131 53.557 50.5785 52.7093 50.8079C49.606 51.6542 37.1158 51.6542 37.1158 51.6542C37.1158 51.6542 24.6256 51.6542 21.5223 50.8079C20.6746 50.5785 19.9017 50.131 19.2808 49.5101C18.6598 48.8891 18.2123 48.1163 17.9829 47.2686C16.6544 41.975 17.0186 33.5729 17.9573 28.0588C18.1867 27.2111 18.6341 26.4383 19.2551 25.8173C19.8761 25.1963 20.6489 24.7488 21.4966 24.5195C24.5999 23.6731 37.0901 23.6475 37.0901 23.6475C37.0901 23.6475 49.5803 23.6475 52.6837 24.4938C53.5314 24.7232 54.3042 25.1707 54.9252 25.7916ZM43.4763 37.6508L33.1148 43.6523V31.6494L43.4763 37.6508Z" fill="white"/>
</svg>
