<svg xmlns="http://www.w3.org/2000/svg" width="512" height="242" fill="none"><path fill="#fff" d="M0 0h512v242H0z"/><path fill="#000" d="M164.31 148.106v24.688h-3.318v-24.688h-9.204v-2.883h21.725v2.883zm13.73 24.688v-27.571h16.985v2.883h-13.667v9.283h13.193v2.883h-13.193v9.638h13.667v2.884zm32.888.474q-5.055 0-7.544-3.674-2.45-3.673-2.449-10.586 0-6.912 2.449-10.586 2.489-3.673 7.544-3.673 1.896 0 3.279.513 1.382.514 2.37 1.383a8.5 8.5 0 0 1 1.659 1.975q.67 1.067 1.185 2.172l-2.844 1.304a11.3 11.3 0 0 0-.83-1.699 5.6 5.6 0 0 0-1.145-1.422 4.4 4.4 0 0 0-1.541-.987q-.868-.356-2.133-.356-3.278 0-4.898 2.489-1.58 2.489-1.58 6.636v4.503q0 4.148 1.58 6.636 1.62 2.488 4.898 2.488 1.264 0 2.133-.355a4.8 4.8 0 0 0 1.541-.948 6.7 6.7 0 0 0 1.145-1.422q.474-.83.83-1.738l2.844 1.303a18 18 0 0 1-1.185 2.212 8.9 8.9 0 0 1-1.659 1.936q-.988.869-2.37 1.382-1.383.514-3.279.514m28.148-12.996h-10.744v12.522h-3.318v-27.571h3.318v12.166h10.744v-12.166h3.318v27.571h-3.318zm12.901-10.704h-.276v23.226h-3.002v-27.571h4.7l9.401 23.226h.277v-23.226h3.002v27.571h-4.701zm29.097 23.7q-2.529 0-4.345-.948-1.818-.988-3.002-2.805-1.186-1.817-1.738-4.463-.553-2.647-.553-6.044 0-3.357.553-6.004.552-2.685 1.738-4.503 1.184-1.817 3.002-2.765 1.816-.987 4.345-.987 2.527 0 4.345.987 1.817.948 3.002 2.765t1.738 4.503q.553 2.647.553 6.004 0 3.397-.553 6.044t-1.738 4.463q-1.185 1.817-3.002 2.805-1.818.948-4.345.948m0-2.884q1.659 0 2.804-.632a5.54 5.54 0 0 0 1.896-1.856q.75-1.185 1.067-2.844.355-1.7.355-3.792v-4.503q0-2.054-.355-3.753-.317-1.698-1.067-2.883t-1.896-1.817q-1.146-.672-2.804-.672-1.659 0-2.805.672-1.146.632-1.896 1.817t-1.106 2.883q-.316 1.699-.316 3.753v4.503q0 2.093.316 3.792.356 1.659 1.106 2.844a5.54 5.54 0 0 0 1.896 1.856q1.146.632 2.805.632m16.574 2.41v-27.571h3.318v24.687h13.075v2.884zm30.795.474q-2.529 0-4.345-.948-1.817-.988-3.002-2.805-1.186-1.817-1.738-4.463-.553-2.647-.553-6.044 0-3.357.553-6.004.552-2.685 1.738-4.503 1.185-1.817 3.002-2.765 1.816-.987 4.345-.987 2.527 0 4.345.987 1.817.948 3.002 2.765t1.738 4.503q.553 2.647.553 6.004 0 3.397-.553 6.044t-1.738 4.463q-1.185 1.817-3.002 2.805-1.818.948-4.345.948m0-2.884q1.66 0 2.804-.632a5.54 5.54 0 0 0 1.896-1.856q.751-1.185 1.067-2.844.355-1.7.355-3.792v-4.503q0-2.054-.355-3.753-.316-1.698-1.067-2.883t-1.896-1.817q-1.145-.672-2.804-.672t-2.805.672q-1.144.632-1.896 1.817-.75 1.185-1.106 2.883-.315 1.699-.316 3.753v4.503q0 2.093.316 3.792.356 1.659 1.106 2.844a5.56 5.56 0 0 0 1.896 1.856q1.146.632 2.805.632m29.372-1.264h-.197q-.356.79-.83 1.541t-1.224 1.343q-.712.552-1.738.908t-2.449.356q-4.503 0-6.715-3.634-2.173-3.635-2.173-10.428 0-7.11 2.41-10.784 2.409-3.673 7.426-3.673 1.935 0 3.357.513 1.422.514 2.41 1.383a8 8 0 0 1 1.698 1.975q.672 1.067 1.106 2.172l-2.844 1.304a11.3 11.3 0 0 0-.829-1.699 4.9 4.9 0 0 0-1.106-1.422 4.4 4.4 0 0 0-1.541-.987q-.907-.356-2.133-.356-3.317 0-4.898 2.489-1.54 2.489-1.54 6.636v4.266q0 2.093.316 3.831.316 1.699 1.027 2.963.75 1.264 1.896 1.975 1.185.67 2.883.671 2.687 0 4.187-1.619 1.501-1.62 1.501-4.187v-2.844h-5.806v-2.647h8.887v13.628h-3.081zm9.465 3.674v-2.647h6.873v-22.278h-6.873v-2.646h17.064v2.646h-6.873v22.278h6.873v2.647zm23.921 0v-27.571h16.985v2.883h-13.667v9.283h13.193v2.883h-13.193v9.638h13.667v2.884zm31.901.474q-3.713 0-6.083-1.343-2.37-1.383-3.911-3.516l2.41-1.975q1.62 2.015 3.397 3.002 1.817.988 4.305.988 3.003 0 4.582-1.383 1.58-1.382 1.58-3.871 0-2.014-1.145-3.12-1.146-1.146-3.99-1.62l-3.081-.513q-2.014-.356-3.397-1.067-1.343-.711-2.172-1.698a6.5 6.5 0 0 1-1.185-2.212 9 9 0 0 1-.356-2.528q0-3.792 2.489-5.728t6.715-1.935q3.318 0 5.569 1.106 2.292 1.105 3.674 3.12l-2.331 2.015a9.4 9.4 0 0 0-2.765-2.449q-1.619-.948-4.187-.948-2.804 0-4.305 1.185t-1.501 3.555q0 1.856 1.106 3.041 1.146 1.146 4.068 1.659l2.963.514q2.014.355 3.397 1.066 1.383.71 2.212 1.699a5.7 5.7 0 0 1 1.224 2.212 9.2 9.2 0 0 1 .356 2.567q0 3.832-2.528 6.004-2.488 2.173-7.11 2.173M176.27 136.84q-8.448 0-14.688-2.784t-10.08-7.584l8.352-9.216q3.648 4.032 7.968 5.952 4.416 1.92 8.928 1.92 5.184 0 7.872-2.304t2.688-6.624q0-3.552-2.112-5.376-2.016-1.824-6.912-2.592l-7.008-1.152q-9.024-1.536-13.056-6.624-4.032-5.184-4.032-12.576 0-9.696 6.336-14.976 6.336-5.376 17.76-5.376 7.776 0 13.536 2.4t9.312 6.528l-8.16 9.12a18.8 18.8 0 0 0-6.336-4.608q-3.648-1.728-8.256-1.728-9.696 0-9.696 7.968 0 3.456 2.112 5.184 2.208 1.728 7.104 2.592l7.008 1.248q8.16 1.44 12.576 6.144t4.416 12.672q0 4.704-1.632 8.736-1.632 3.936-4.896 6.912-3.264 2.88-8.064 4.512-4.704 1.632-11.04 1.632m37.018-1.152v-10.656h14.4V79.336h-14.4V68.68h43.2v10.656h-14.4v45.696h14.4v10.656zm69.563-44.544h-1.056v44.544h-12.288V68.68h17.28l15.264 44.544h1.056V68.68h12.288v67.008h-17.28zm57.562 0h-1.056v44.544h-12.288V68.68h17.28l15.264 44.544h1.056V68.68h12.288v67.008h-17.28zm67.163 45.696q-13.44 0-19.872-9.12-6.336-9.12-6.336-25.536t6.336-25.536q6.432-9.12 19.872-9.12t19.776 9.12q6.432 9.12 6.432 25.536t-6.432 25.536q-6.336 9.12-19.776 9.12m0-11.616q6.144 0 8.448-4.512 2.4-4.608 2.4-12.768V96.328q0-8.064-2.4-12.576-2.304-4.608-8.448-4.608t-8.544 4.608q-2.304 4.512-2.304 12.576v11.712q0 8.064 2.304 12.672 2.4 4.512 8.544 4.512"/><path stroke="#000" stroke-width="2" d="m95.07 122.048 21.084-5.487 20.549 5.535m-41.633-.048-20.626 5.117-20.907-5.269m41.533.152-5.565-21.199 5.517-21.185m.048 42.384 5.135 21.249-5.188 21.237M95.07 122.048l-33.915 34.525m33.914-34.525 33.915-34.526m-33.915 34.526L61.077 87.442m33.992 34.606 33.992 34.605"/><path fill="#000" stroke="#000" stroke-width="3" d="M112.392 122.252c-.158 9.465-7.961 17.13-17.429 17.119a16.823 16.823 0 0 1-16.855-17.159c.159-9.466 7.962-17.13 17.43-17.119a16.82 16.82 0 0 1 16.854 17.159Z"/><path fill="gold" stroke="#000" stroke-width="3" d="M99.113 160.364c2.215 2.255 2.216 5.903.012 8.147a5.59 5.59 0 0 1-8.003-.012c-2.216-2.255-2.216-5.903-.012-8.147a5.59 5.59 0 0 1 8.003.012ZM140.699 118.029c2.215 2.255 2.216 5.903.011 8.147a5.59 5.59 0 0 1-8.003-.012c-2.215-2.255-2.216-5.903-.011-8.147a5.59 5.59 0 0 1 8.003.012ZM99.018 75.596c2.215 2.255 2.216 5.903.011 8.147a5.59 5.59 0 0 1-8.003-.011c-2.215-2.256-2.216-5.903-.011-8.148a5.59 5.59 0 0 1 8.003.012ZM57.43 117.931c2.216 2.256 2.217 5.903.012 8.148a5.59 5.59 0 0 1-8.003-.012c-2.215-2.256-2.216-5.903-.011-8.147a5.59 5.59 0 0 1 8.003.011Z"/><path fill="gold" d="m95.283 106.772 13.324 7.747.018 15.464-13.307 7.716-13.325-7.748-.017-15.463z"/><path stroke="#000" stroke-width="2" d="m95.3 122.235.018 15.464m-.018-15.464 13.307-7.716M95.3 122.235l-13.324-7.747m26.631.031-13.324-7.747-13.307 7.716m26.631.031.018 15.464-13.307 7.716m0 0-13.325-7.748-.017-15.463"/><path fill="gold" d="m118.592 145.468 15.779-4.169 11.609 11.61-4.17 15.778-15.779 4.169-11.609-11.609z"/><path stroke="#000" stroke-width="2" d="m130.201 157.078 11.609 11.609m-11.609-11.609 4.17-15.779m-4.17 15.779-15.779 4.169m19.949-19.948-15.779 4.169-4.17 15.779m19.949-19.948 11.609 11.61-4.17 15.778m0 0-15.779 4.169-11.609-11.609"/><path fill="gold" d="m47.178 73.724 15.78-4.17 11.609 11.61-4.17 15.78-15.78 4.168-11.608-11.61z"/><path stroke="#000" stroke-width="2" d="m58.788 85.334 11.609 11.61m-11.61-11.61 4.17-15.78m-4.17 15.78L43.01 89.503m19.948-19.948-15.779 4.169-4.17 15.779m19.95-19.948 11.609 11.61-4.17 15.778m0 0-15.78 4.169-11.608-11.61"/><path fill="gold" d="m70.451 146.365 4.205 15.788-11.583 11.583-15.788-4.206-4.205-15.789 11.583-11.582z"/><path stroke="#000" stroke-width="2" d="M58.868 157.947 47.285 169.53m11.583-11.583 15.788 4.206m-15.788-4.206-4.205-15.788m19.993 19.994-4.205-15.788-15.788-4.206m19.993 19.994-11.583 11.583-15.788-4.206m0 0-4.205-15.789 11.583-11.582"/><path fill="gold" d="m142.655 73.834 4.205 15.788-11.583 11.583-15.788-4.206-4.205-15.788 11.583-11.583z"/><path stroke="#000" stroke-width="2" d="m131.072 85.417-11.583 11.582m11.583-11.582 15.788 4.205m-15.788-4.206-4.205-15.788m19.993 19.994-4.205-15.788-15.788-4.206m19.993 19.994-11.583 11.583-15.788-4.206m0 0-4.205-15.788 11.583-11.583"/></svg>