<svg width="512" height="193" viewBox="0 0 512 193" fill="none" xmlns="http://www.w3.org/2000/svg">
<path d="M164.31 123.106V147.794H160.992V123.106H151.788V120.223H173.513V123.106H164.31ZM178.04 147.794V120.223H195.025V123.106H181.358V132.389H194.551V135.272H181.358V144.91H195.025V147.794H178.04ZM210.928 148.268C207.558 148.268 205.043 147.043 203.384 144.594C201.751 142.145 200.935 138.617 200.935 134.008C200.935 129.4 201.751 125.871 203.384 123.422C205.043 120.973 207.558 119.749 210.928 119.749C212.192 119.749 213.285 119.92 214.207 120.262C215.128 120.605 215.918 121.065 216.577 121.645C217.235 122.224 217.788 122.882 218.236 123.62C218.683 124.331 219.078 125.055 219.421 125.792L216.577 127.096C216.34 126.49 216.063 125.924 215.747 125.397C215.431 124.844 215.049 124.37 214.602 123.975C214.18 123.554 213.667 123.225 213.061 122.988C212.482 122.751 211.771 122.632 210.928 122.632C208.743 122.632 207.11 123.462 206.03 125.121C204.977 126.78 204.45 128.992 204.45 131.757V136.26C204.45 139.025 204.977 141.237 206.03 142.896C207.11 144.555 208.743 145.384 210.928 145.384C211.771 145.384 212.482 145.266 213.061 145.029C213.667 144.792 214.18 144.476 214.602 144.081C215.049 143.659 215.431 143.185 215.747 142.659C216.063 142.106 216.34 141.526 216.577 140.921L219.421 142.224C219.078 142.988 218.683 143.725 218.236 144.436C217.788 145.147 217.235 145.792 216.577 146.372C215.918 146.951 215.128 147.412 214.207 147.754C213.285 148.097 212.192 148.268 210.928 148.268ZM239.076 135.272H228.332V147.794H225.014V120.223H228.332V132.389H239.076V120.223H242.394V147.794H239.076V135.272ZM251.977 124.449H251.701V147.794H248.699V120.223H253.399L262.8 143.33H263.077V120.223H266.079V147.794H261.378L251.977 124.449ZM281.073 148.268C279.388 148.268 277.94 147.952 276.728 147.32C275.517 146.661 274.516 145.727 273.726 144.515C272.936 143.304 272.357 141.816 271.988 140.052C271.62 138.287 271.435 136.273 271.435 134.008C271.435 131.77 271.62 129.769 271.988 128.004C272.357 126.214 272.936 124.713 273.726 123.501C274.516 122.29 275.517 121.368 276.728 120.736C277.94 120.078 279.388 119.749 281.073 119.749C282.759 119.749 284.207 120.078 285.418 120.736C286.63 121.368 287.63 122.29 288.42 123.501C289.21 124.713 289.79 126.214 290.158 128.004C290.527 129.769 290.711 131.77 290.711 134.008C290.711 136.273 290.527 138.287 290.158 140.052C289.79 141.816 289.21 143.304 288.42 144.515C287.63 145.727 286.63 146.661 285.418 147.32C284.207 147.952 282.759 148.268 281.073 148.268ZM281.073 145.384C282.179 145.384 283.114 145.174 283.878 144.752C284.642 144.305 285.274 143.686 285.774 142.896C286.274 142.106 286.63 141.158 286.84 140.052C287.077 138.919 287.196 137.655 287.196 136.26V131.757C287.196 130.387 287.077 129.137 286.84 128.004C286.63 126.872 286.274 125.911 285.774 125.121C285.274 124.331 284.642 123.725 283.878 123.304C283.114 122.856 282.179 122.632 281.073 122.632C279.967 122.632 279.033 122.856 278.269 123.304C277.505 123.725 276.873 124.331 276.373 125.121C275.873 125.911 275.504 126.872 275.267 128.004C275.056 129.137 274.951 130.387 274.951 131.757V136.26C274.951 137.655 275.056 138.919 275.267 140.052C275.504 141.158 275.873 142.106 276.373 142.896C276.873 143.686 277.505 144.305 278.269 144.752C279.033 145.174 279.967 145.384 281.073 145.384ZM297.648 147.794V120.223H300.966V144.91H314.041V147.794H297.648ZM328.443 148.268C326.757 148.268 325.309 147.952 324.098 147.32C322.886 146.661 321.886 145.727 321.096 144.515C320.306 143.304 319.726 141.816 319.358 140.052C318.989 138.287 318.805 136.273 318.805 134.008C318.805 131.77 318.989 129.769 319.358 128.004C319.726 126.214 320.306 124.713 321.096 123.501C321.886 122.29 322.886 121.368 324.098 120.736C325.309 120.078 326.757 119.749 328.443 119.749C330.128 119.749 331.576 120.078 332.788 120.736C333.999 121.368 335 122.29 335.79 123.501C336.58 124.713 337.159 126.214 337.528 128.004C337.896 129.769 338.081 131.77 338.081 134.008C338.081 136.273 337.896 138.287 337.528 140.052C337.159 141.816 336.58 143.304 335.79 144.515C335 145.727 333.999 146.661 332.788 147.32C331.576 147.952 330.128 148.268 328.443 148.268ZM328.443 145.384C329.549 145.384 330.483 145.174 331.247 144.752C332.011 144.305 332.643 143.686 333.143 142.896C333.643 142.106 333.999 141.158 334.21 140.052C334.447 138.919 334.565 137.655 334.565 136.26V131.757C334.565 130.387 334.447 129.137 334.21 128.004C333.999 126.872 333.643 125.911 333.143 125.121C332.643 124.331 332.011 123.725 331.247 123.304C330.483 122.856 329.549 122.632 328.443 122.632C327.337 122.632 326.402 122.856 325.638 123.304C324.874 123.725 324.242 124.331 323.742 125.121C323.242 125.911 322.873 126.872 322.636 128.004C322.425 129.137 322.32 130.387 322.32 131.757V136.26C322.32 137.655 322.425 138.919 322.636 140.052C322.873 141.158 323.242 142.106 323.742 142.896C324.242 143.686 324.874 144.305 325.638 144.752C326.402 145.174 327.337 145.384 328.443 145.384ZM357.815 144.12H357.618C357.381 144.647 357.104 145.16 356.788 145.661C356.472 146.161 356.064 146.609 355.564 147.004C355.09 147.372 354.51 147.675 353.826 147.912C353.141 148.149 352.325 148.268 351.377 148.268C348.375 148.268 346.136 147.056 344.662 144.634C343.213 142.211 342.489 138.735 342.489 134.206C342.489 129.466 343.292 125.871 344.899 123.422C346.505 120.973 348.98 119.749 352.325 119.749C353.615 119.749 354.734 119.92 355.682 120.262C356.63 120.605 357.433 121.065 358.092 121.645C358.776 122.224 359.342 122.882 359.79 123.62C360.238 124.331 360.606 125.055 360.896 125.792L358.052 127.096C357.815 126.49 357.539 125.924 357.223 125.397C356.933 124.844 356.564 124.37 356.117 123.975C355.695 123.554 355.182 123.225 354.576 122.988C353.97 122.751 353.259 122.632 352.443 122.632C350.231 122.632 348.598 123.462 347.545 125.121C346.518 126.78 346.005 128.992 346.005 131.757V136.023C346.005 137.418 346.11 138.696 346.321 139.854C346.531 140.987 346.874 141.974 347.348 142.817C347.848 143.659 348.48 144.318 349.244 144.792C350.034 145.239 350.995 145.463 352.127 145.463C353.918 145.463 355.313 144.923 356.314 143.844C357.315 142.764 357.815 141.368 357.815 139.657V136.813H352.009V134.166H360.896V147.794H357.815V144.12ZM367.28 147.794V145.147H374.153V122.869H367.28V120.223H384.344V122.869H377.471V145.147H384.344V147.794H367.28ZM391.201 147.794V120.223H408.186V123.106H394.519V132.389H407.712V135.272H394.519V144.91H408.186V147.794H391.201ZM423.102 148.268C420.627 148.268 418.599 147.82 417.019 146.925C415.439 146.003 414.135 144.831 413.108 143.409L415.518 141.434C416.598 142.777 417.73 143.778 418.915 144.436C420.126 145.095 421.561 145.424 423.22 145.424C425.222 145.424 426.749 144.963 427.802 144.041C428.856 143.12 429.382 141.829 429.382 140.17C429.382 138.827 429.001 137.787 428.237 137.05C427.473 136.286 426.143 135.746 424.247 135.43L421.166 134.917C419.823 134.68 418.691 134.324 417.769 133.85C416.874 133.376 416.15 132.81 415.597 132.152C415.044 131.467 414.649 130.73 414.412 129.94C414.175 129.123 414.056 128.281 414.056 127.412C414.056 124.884 414.886 122.975 416.545 121.684C418.204 120.394 420.442 119.749 423.26 119.749C425.472 119.749 427.328 120.117 428.829 120.855C430.357 121.592 431.581 122.632 432.503 123.975L430.172 125.99C429.409 124.989 428.487 124.173 427.407 123.541C426.328 122.909 424.932 122.593 423.22 122.593C421.351 122.593 419.916 122.988 418.915 123.778C417.914 124.568 417.414 125.753 417.414 127.333C417.414 128.57 417.783 129.584 418.52 130.374C419.284 131.138 420.64 131.691 422.588 132.033L425.551 132.547C426.894 132.784 428.026 133.139 428.948 133.613C429.87 134.087 430.607 134.653 431.16 135.312C431.739 135.97 432.147 136.707 432.384 137.524C432.621 138.34 432.74 139.196 432.74 140.091C432.74 142.646 431.897 144.647 430.212 146.095C428.553 147.544 426.183 148.268 423.102 148.268Z" fill="#EEEEEE"/>
<path d="M176.269 111.84C170.637 111.84 165.741 110.912 161.581 109.056C157.421 107.2 154.061 104.672 151.501 101.472L159.853 92.2559C162.285 94.9439 164.941 96.9279 167.821 98.2079C170.765 99.4879 173.741 100.128 176.749 100.128C180.205 100.128 182.829 99.3599 184.621 97.8239C186.413 96.2879 187.309 94.0799 187.309 91.1999C187.309 88.8319 186.605 87.0399 185.197 85.8239C183.853 84.6079 181.549 83.7439 178.285 83.2319L171.277 82.0799C165.261 81.0559 160.909 78.8479 158.221 75.4559C155.533 71.9999 154.189 67.8079 154.189 62.8799C154.189 56.4159 156.301 51.4239 160.525 47.9039C164.749 44.3199 170.669 42.5279 178.285 42.5279C183.469 42.5279 187.981 43.3279 191.821 44.9279C195.661 46.5279 198.765 48.7039 201.133 51.4559L192.973 60.5759C191.181 58.5919 189.069 57.0559 186.637 55.9679C184.205 54.8159 181.453 54.2399 178.381 54.2399C171.917 54.2399 168.685 56.8959 168.685 62.2079C168.685 64.5119 169.389 66.2399 170.797 67.3919C172.269 68.5439 174.637 69.4079 177.901 69.9839L184.909 71.2319C190.349 72.1919 194.541 74.2399 197.485 77.3759C200.429 80.5119 201.901 84.7359 201.901 90.0479C201.901 93.1839 201.357 96.0959 200.269 98.7839C199.181 101.408 197.549 103.712 195.373 105.696C193.197 107.616 190.509 109.12 187.309 110.208C184.173 111.296 180.493 111.84 176.269 111.84ZM213.288 110.688V100.032H227.688V54.3359H213.288V43.6799H256.488V54.3359H242.088V100.032H256.488V110.688H213.288ZM282.85 66.1439H281.794V110.688H269.506V43.6799H286.786L302.05 88.2239H303.106V43.6799H315.394V110.688H298.114L282.85 66.1439ZM340.413 66.1439H339.357V110.688H327.069V43.6799H344.349L359.613 88.2239H360.669V43.6799H372.957V110.688H355.677L340.413 66.1439ZM407.575 111.84C398.615 111.84 391.991 108.8 387.703 102.72C383.479 96.6399 381.367 88.1279 381.367 77.1839C381.367 66.2399 383.479 57.7279 387.703 51.6479C391.991 45.5679 398.615 42.5279 407.575 42.5279C416.535 42.5279 423.127 45.5679 427.351 51.6479C431.639 57.7279 433.783 66.2399 433.783 77.1839C433.783 88.1279 431.639 96.6399 427.351 102.72C423.127 108.8 416.535 111.84 407.575 111.84ZM407.575 100.224C411.671 100.224 414.487 98.7199 416.023 95.7119C417.623 92.6399 418.423 88.3839 418.423 82.9439V71.3279C418.423 65.9519 417.623 61.7599 416.023 58.7519C414.487 55.6799 411.671 54.1439 407.575 54.1439C403.479 54.1439 400.631 55.6799 399.031 58.7519C397.495 61.7599 396.727 65.9519 396.727 71.3279V83.0399C396.727 88.4159 397.495 92.6399 399.031 95.7119C400.631 98.7199 403.479 100.224 407.575 100.224Z" fill="#EEEEEE"/>
<path d="M95.0699 97.0476L116.154 91.561L136.703 97.0961M95.0699 97.0476L74.4435 102.165L53.5374 96.8963M95.0699 97.0476L89.5052 75.8492L95.0222 54.6637M95.0699 97.0476L100.206 118.297L95.0166 139.534" stroke="#FFD700" stroke-width="2"/>
<path d="M95.069 97.0475L61.1543 131.573M95.069 97.0475L128.984 62.5216M95.069 97.0475L61.0766 62.4424M95.069 97.0475L129.061 131.653" stroke="#FFD700" stroke-width="2"/>
<ellipse cx="18.6421" cy="18.6413" rx="18.6421" ry="18.6413" transform="matrix(0.999999 0.00116552 -0.0167397 0.999861 76.9201 78.5713)" fill="#FFD700"/>
<path d="M99.1131 135.364C101.328 137.619 101.329 141.267 99.1246 143.511C96.9201 145.755 93.3371 145.755 91.1217 143.499C88.9063 141.244 88.9057 137.596 91.1101 135.352C93.3146 133.108 96.8976 133.109 99.1131 135.364Z" fill="black" stroke="#FFD700" stroke-width="3"/>
<path d="M140.699 93.0286C142.914 95.2839 142.915 98.9315 140.71 101.176C138.506 103.42 134.923 103.419 132.707 101.164C130.492 98.9086 130.491 95.261 132.696 93.0168C134.9 90.7726 138.483 90.7732 140.699 93.0286Z" fill="black" stroke="#FFD700" stroke-width="3"/>
<path d="M99.0177 50.5961C101.233 52.8514 101.234 56.499 99.0293 58.7432C96.8248 60.9875 93.2418 60.9868 91.0264 58.7315C88.811 56.4761 88.8103 52.8285 91.0148 50.5843C93.2193 48.3401 96.8023 48.3407 99.0177 50.5961Z" fill="black" stroke="#FFD700" stroke-width="3"/>
<path d="M57.4306 92.9314C59.646 95.1867 59.6466 98.8343 57.4421 101.079C55.2376 103.323 51.6546 103.322 49.4392 101.067C47.2238 98.8114 47.2232 95.1638 49.4276 92.9196C51.6321 90.6754 55.2152 90.676 57.4306 92.9314Z" fill="black" stroke="#FFD700" stroke-width="3"/>
<path d="M95.2828 81.7717L108.607 89.519L108.625 104.983L95.3175 112.699L81.9931 104.951L81.9757 89.488L95.2828 81.7717Z" fill="black"/>
<path d="M95.3002 97.2352L95.3175 112.699M95.3002 97.2352L108.607 89.519M95.3002 97.2352L81.9757 89.488M108.607 89.519L95.2828 81.7717L81.9757 89.488M108.607 89.519L108.625 104.983L95.3175 112.699M95.3175 112.699L81.9931 104.951L81.9757 89.488" stroke="#FFD700" stroke-width="2"/>
<path d="M118.592 120.468L134.371 116.299L145.98 127.909L141.81 143.687L126.031 147.856L114.422 136.247L118.592 120.468Z" fill="black"/>
<path d="M130.201 132.078L141.81 143.687M130.201 132.078L134.371 116.299M130.201 132.078L114.422 136.247M134.371 116.299L118.592 120.468L114.422 136.247M134.371 116.299L145.98 127.909L141.81 143.687M141.81 143.687L126.031 147.856L114.422 136.247" stroke="#FFD700" stroke-width="2"/>
<path d="M47.1783 48.7238L62.9572 44.5548L74.5663 56.1644L70.3966 71.9431L54.6177 76.1122L43.0086 64.5026L47.1783 48.7238Z" fill="black"/>
<path d="M58.7875 60.3335L70.3966 71.9431M58.7875 60.3335L62.9572 44.5548M58.7875 60.3335L43.0086 64.5026M62.9572 44.5548L47.1783 48.7238L43.0086 64.5026M62.9572 44.5548L74.5663 56.1644L70.3966 71.9431M70.3966 71.9431L54.6177 76.1122L43.0086 64.5026" stroke="#FFD700" stroke-width="2"/>
<path d="M70.4511 121.365L74.6563 137.153L63.0733 148.736L47.2849 144.53L43.0797 128.741L54.6628 117.159L70.4511 121.365Z" fill="black"/>
<path d="M58.868 132.947L47.2849 144.53M58.868 132.947L74.6563 137.153M58.868 132.947L54.6628 117.159M74.6563 137.153L70.4511 121.365L54.6628 117.159M74.6563 137.153L63.0733 148.736L47.2849 144.53M47.2849 144.53L43.0797 128.741L54.6628 117.159" stroke="#FFD700" stroke-width="2"/>
<path d="M142.655 48.8339L146.86 64.6223L135.277 76.2049L119.489 71.9991L115.284 56.2106L126.867 44.628L142.655 48.8339Z" fill="black"/>
<path d="M131.072 60.4165L119.489 71.9991M131.072 60.4165L146.86 64.6223M131.072 60.4165L126.867 44.628M146.86 64.6223L142.655 48.8339L126.867 44.628M146.86 64.6223L135.277 76.2049L119.489 71.9991M119.489 71.9991L115.284 56.2106L126.867 44.628" stroke="#FFD700" stroke-width="2"/>
</svg>
